<svg width="40.000000" height="40.000000" viewBox="0 0 40 40" fill="none" xmlns="http://www.w3.org/2000/svg" xmlns:xlink="http://www.w3.org/1999/xlink">
	<desc>
			Created with Pixso.
	</desc>
	<defs/>
	<rect id="back" rx="20.000000" width="40.000000" height="40.000000" fill="#FF3E79" fill-opacity="1.000000"/>
	<path id="icon" d="M12.76 23.25L15.3 22.96C15.91 22.88 16.51 23.1 16.94 23.53L18.78 25.37C21.61 23.92 23.93 21.62 25.37 18.78L23.52 16.92C23.09 16.5 22.88 15.89 22.95 15.29L23.24 12.77C23.36 11.76 24.21 11 25.23 11L26.96 11C28.09 11 29.03 11.93 28.96 13.07C28.43 21.61 21.6 28.42 13.07 28.96C11.94 29.03 11 28.09 11 26.96L11 25.23C10.99 24.22 11.75 23.37 12.76 23.25Z" fill="#FFFFFF" fill-opacity="1.000000" fill-rule="evenodd"/>
</svg>
